<?xml version="1.0" encoding="UTF-8" standalone="no"?><!DOCTYPE svg PUBLIC "-//W3C//DTD SVG 1.1//EN" "http://www.w3.org/Graphics/SVG/1.1/DTD/svg11.dtd">
<svg width="100%" height="100%" viewBox="0 0 139 195" version="1.1"
  xmlns="http://www.w3.org/2000/svg"
  xmlns:xlink="http://www.w3.org/1999/xlink" xml:space="preserve"
  xmlns:serif="http://www.serif.com/" style="fill-rule:evenodd;clip-rule:evenodd;stroke-linecap:round;stroke-linejoin:round;stroke-miterlimit:10;">
  <g id="M8">
    <path d="M134.858,1c1.435,0 2.599,1.165 2.599,2.6l0,187.122c0,1.435 -1.163,2.599 -2.599,2.599l-131.258,0c-1.437,0 -2.6,-1.163 -2.6,-2.599l0,-187.122c0,-1.435 1.163,-2.6 2.6,-2.6l131.258,0Z" style="fill:none;fill-rule:nonzero;stroke:#000;stroke-width:0.3px;"/>
    <path d="M28.243,165.56c0,-0.452 -0.368,-0.819 -0.82,-0.819l-14.897,0c-0.217,0 -0.425,0.086 -0.579,0.24c-0.154,0.153 -0.24,0.362 -0.24,0.579l0,0.001c0,0.452 0.367,0.819 0.819,0.819l14.897,0c0.218,0 0.427,-0.087 0.58,-0.24c0.153,-0.153 0.24,-0.362 0.24,-0.579l0,-0.001Z" style="fill:none;fill-rule:nonzero;stroke:#000;stroke-width:0.3px;"/>
    <path d="M28.243,168.815c0,-0.452 -0.368,-0.819 -0.82,-0.819l-14.897,0c-0.217,0 -0.425,0.086 -0.579,0.24c-0.154,0.153 -0.24,0.362 -0.24,0.579l0,0.001c0,0.452 0.367,0.819 0.819,0.819l14.897,0c0.218,0 0.427,-0.087 0.58,-0.24c0.153,-0.153 0.24,-0.362 0.24,-0.579l0,-0.001Z" style="fill:none;fill-rule:nonzero;stroke:#000;stroke-width:0.3px;"/>
    <path d="M28.243,172.092c0,-0.452 -0.368,-0.819 -0.82,-0.819l-14.897,0c-0.217,0 -0.425,0.086 -0.579,0.239c-0.154,0.154 -0.24,0.363 -0.24,0.58l0,0.001c0,0.451 0.367,0.819 0.819,0.819l14.897,0c0.218,0 0.427,-0.087 0.58,-0.24c0.153,-0.153 0.24,-0.362 0.24,-0.579l0,-0.001Z" style="fill:none;fill-rule:nonzero;stroke:#000;stroke-width:0.3px;"/>
    <path d="M28.243,175.397c0,-0.452 -0.368,-0.819 -0.82,-0.819l-14.897,0c-0.217,0 -0.425,0.086 -0.579,0.239c-0.154,0.154 -0.24,0.363 -0.24,0.58c0,0.452 0.367,0.82 0.819,0.82l14.897,0c0.218,0 0.427,-0.087 0.58,-0.24c0.153,-0.153 0.24,-0.362 0.24,-0.58Z" style="fill:none;fill-rule:nonzero;stroke:#000;stroke-width:0.3px;"/>
    <path d="M28.243,178.677c0,-0.452 -0.368,-0.819 -0.82,-0.819l-14.897,0c-0.217,0 -0.425,0.086 -0.579,0.239c-0.154,0.154 -0.24,0.363 -0.24,0.58l0,0.001c0,0.452 0.367,0.819 0.819,0.819l14.897,0c0.218,0 0.427,-0.087 0.58,-0.24c0.153,-0.153 0.24,-0.362 0.24,-0.579l0,-0.001Z" style="fill:none;fill-rule:nonzero;stroke:#000;stroke-width:0.3px;"/>
    <path d="M28.243,181.924c0,-0.452 -0.368,-0.819 -0.82,-0.819l-14.897,0c-0.217,0 -0.425,0.086 -0.579,0.24c-0.154,0.153 -0.24,0.362 -0.24,0.579l0,0.001c0,0.452 0.367,0.819 0.819,0.819l14.897,0c0.218,0 0.427,-0.087 0.58,-0.24c0.153,-0.153 0.24,-0.362 0.24,-0.579l0,-0.001Z" style="fill:none;fill-rule:nonzero;stroke:#000;stroke-width:0.3px;"/>
    <path d="M126.94,165.56c0,-0.452 -0.367,-0.819 -0.819,-0.819l-14.898,0c-0.217,0 -0.425,0.086 -0.579,0.24c-0.153,0.153 -0.24,0.362 -0.24,0.579l0,0.001c0,0.452 0.367,0.819 0.819,0.819l14.898,0c0.217,0 0.425,-0.087 0.579,-0.24c0.154,-0.153 0.24,-0.362 0.24,-0.579l0,-0.001Z" style="fill:none;fill-rule:nonzero;stroke:#000;stroke-width:0.3px;"/>
    <path d="M126.94,168.815c0,-0.452 -0.367,-0.819 -0.819,-0.819l-14.898,0c-0.217,0 -0.425,0.086 -0.579,0.24c-0.153,0.153 -0.24,0.362 -0.24,0.579l0,0.001c0,0.452 0.367,0.819 0.819,0.819l14.898,0c0.217,0 0.425,-0.087 0.579,-0.24c0.154,-0.153 0.24,-0.362 0.24,-0.579l0,-0.001Z" style="fill:none;fill-rule:nonzero;stroke:#000;stroke-width:0.3px;"/>
    <path d="M126.94,172.092c0,-0.452 -0.367,-0.819 -0.819,-0.819l-14.898,0c-0.217,0 -0.425,0.086 -0.579,0.239c-0.153,0.154 -0.24,0.363 -0.24,0.58l0,0.001c0,0.451 0.367,0.819 0.819,0.819l14.898,0c0.217,0 0.425,-0.087 0.579,-0.24c0.154,-0.153 0.24,-0.362 0.24,-0.579l0,-0.001Z" style="fill:none;fill-rule:nonzero;stroke:#000;stroke-width:0.3px;"/>
    <path d="M126.94,175.397c0,-0.452 -0.367,-0.819 -0.819,-0.819l-14.898,0c-0.217,0 -0.425,0.086 -0.579,0.239c-0.153,0.154 -0.24,0.363 -0.24,0.58c0,0.452 0.367,0.82 0.819,0.82l14.898,0c0.217,0 0.425,-0.087 0.579,-0.24c0.154,-0.153 0.24,-0.362 0.24,-0.58Z" style="fill:none;fill-rule:nonzero;stroke:#000;stroke-width:0.3px;"/>
    <path d="M126.94,178.677c0,-0.452 -0.367,-0.819 -0.819,-0.819l-14.898,0c-0.217,0 -0.425,0.086 -0.579,0.239c-0.153,0.154 -0.24,0.363 -0.24,0.58l0,0.001c0,0.452 0.367,0.819 0.819,0.819l14.898,0c0.217,0 0.425,-0.087 0.579,-0.24c0.154,-0.153 0.24,-0.362 0.24,-0.579l0,-0.001Z" style="fill:none;fill-rule:nonzero;stroke:#000;stroke-width:0.3px;"/>
    <path d="M126.94,181.924c0,-0.452 -0.367,-0.819 -0.819,-0.819l-14.898,0c-0.217,0 -0.425,0.086 -0.579,0.24c-0.153,0.153 -0.24,0.362 -0.24,0.579l0,0.001c0,0.452 0.367,0.819 0.819,0.819l14.898,0c0.217,0 0.425,-0.087 0.579,-0.24c0.154,-0.153 0.24,-0.362 0.24,-0.579l0,-0.001Z" style="fill:none;fill-rule:nonzero;stroke:#000;stroke-width:0.3px;"/>
    <circle cx="12.569" cy="97.115" r="0.894" style="fill:none;stroke:#000;stroke-width:0.3px;"/>
    <path d="M36.881,127.974c0.423,0 0.829,-0.168 1.129,-0.468c0.299,-0.299 0.467,-0.705 0.467,-1.129l0,-21.319c0,-1.328 1.076,-2.404 2.404,-2.404l23.067,0c1.328,0 2.404,1.076 2.404,2.404l0,21.319c0,0.424 0.168,0.83 0.468,1.129c0.299,0.3 0.705,0.468 1.129,0.468l22.833,0c1.328,0 2.404,1.076 2.404,2.404l0,21.657c0,1.328 -1.076,2.404 -2.404,2.404l-76.703,0c-1.328,0 -2.404,-1.076 -2.404,-2.404l0,-21.657c0,-1.328 1.076,-2.404 2.404,-2.404l22.802,0Zm90.012,-29.675l0,21.511c0,0.644 -0.256,1.26 -0.711,1.715c-0.455,0.455 -1.071,0.71 -1.714,0.71l-49.827,0c-0.644,0 -1.26,-0.255 -1.715,-0.71c-0.455,-0.455 -0.71,-1.071 -0.71,-1.715l0,-21.511c0,-0.642 0.255,-1.259 0.71,-1.714c0.455,-0.455 1.071,-0.711 1.715,-0.711l49.827,0c0.642,0 1.259,0.256 1.714,0.711c0.455,0.455 0.711,1.071 0.711,1.714Zm-33.724,64.182l0,21.511c0,0.644 -0.255,1.26 -0.71,1.715c-0.455,0.455 -1.071,0.71 -1.715,0.71l-49.827,0c-0.642,0 -1.259,-0.255 -1.714,-0.71c-0.455,-0.455 -0.711,-1.071 -0.711,-1.715l0,-21.511c0,-0.642 0.256,-1.259 0.711,-1.714c0.455,-0.455 1.071,-0.711 1.714,-0.711l49.827,0c0.644,0 1.26,0.256 1.715,0.711c0.455,0.455 0.71,1.071 0.71,1.714Z" style="fill:none;fill-rule:nonzero;stroke:#000;stroke-width:0.3px;"/>
    <path d="M126.894,13.008c0,-0.56 -0.223,-1.097 -0.619,-1.493c-0.396,-0.396 -0.933,-0.619 -1.493,-0.619l-110.994,0c-0.56,0 -1.097,0.223 -1.493,0.619c-0.396,0.396 -0.619,0.933 -0.619,1.493l0,74.605c0,0.56 0.223,1.098 0.619,1.494c0.396,0.396 0.933,0.618 1.493,0.618l110.994,0c0.56,0 1.097,-0.222 1.493,-0.618c0.396,-0.396 0.619,-0.934 0.619,-1.494l0,-74.605Z" style="fill-rule:nonzero;stroke:#000;stroke-width:0.3px;"/>
    <path d="M19.938,107.676l0,1.363c0,0.039 -0.032,0.071 -0.072,0.071l-4.251,0c-0.02,0 -0.037,-0.007 -0.051,-0.021l-0.759,-0.759c-0.013,-0.013 -0.021,-0.032 -0.021,-0.051l0,-2.76c0,-0.039 0.031,-0.072 0.071,-0.072l2.855,0c0.02,0 0.037,0.009 0.051,0.021l2.156,2.157c0.013,0.013 0.021,0.032 0.021,0.051" style="fill-rule:nonzero;"/>
    <path d="M24.798,106.278l0,2.76c0,0.039 -0.031,0.072 -0.071,0.072l-0.517,0c-0.02,0 -0.037,-0.009 -0.051,-0.021l-1.422,-1.423c-0.012,-0.013 -0.031,-0.021 -0.05,-0.021l-0.169,0c-0.004,0 -0.009,0.004 -0.009,0.007l0,1.385c0,0.039 -0.031,0.072 -0.071,0.072l-0.566,0c-0.02,0 -0.037,-0.009 -0.051,-0.021l-2.817,-2.819c-0.013,-0.013 -0.021,-0.032 -0.021,-0.051l0,-0.701c0,-0.039 0.032,-0.071 0.071,-0.071l4.914,0c0.02,0 0.037,0.007 0.05,0.021l0.76,0.761c0.013,0.012 0.021,0.031 0.021,0.049" style="fill-rule:nonzero;"/>
    <path d="M19.323,112.452c0.112,0 0.163,-0.056 0.163,-0.163l0,-2.39c0,-0.107 -0.051,-0.163 -0.163,-0.163l-0.59,0c-0.119,0 -0.175,0.053 -0.227,0.127l-1.366,2.059l-0.009,0l-1.362,-2.059c-0.051,-0.075 -0.108,-0.127 -0.227,-0.127l-0.593,0c-0.112,0 -0.168,0.056 -0.168,0.163l0,2.39c0,0.107 0.056,0.163 0.168,0.163l0.243,0c0.112,0 0.163,-0.056 0.163,-0.163l0,-2.043l0.009,0l1.378,2.079c0.051,0.076 0.107,0.127 0.227,0.127l0.315,0c0.123,0 0.179,-0.051 0.23,-0.127l1.374,-2.079l0.007,0l0,2.043c0,0.107 0.056,0.163 0.168,0.163l0.259,0Z" style="fill-rule:nonzero;"/>
    <path d="M20.736,112.452l3.342,0c0.478,0 0.721,-0.235 0.721,-0.713c0,-0.354 -0.172,-0.577 -0.53,-0.661c0.39,-0.06 0.521,-0.315 0.521,-0.645c0,-0.471 -0.227,-0.697 -0.78,-0.697l-3.207,0c-0.542,0 -0.781,0.227 -0.781,0.697c0,0.33 0.18,0.645 0.522,0.645c-0.358,0.083 -0.53,0.306 -0.53,0.661c0,0.478 0.243,0.713 0.721,0.713m3.17,-0.458l-2.998,0c-0.228,0 -0.34,-0.107 -0.34,-0.333c0,-0.232 0.127,-0.347 0.435,-0.347l2.807,0c0.306,0 0.434,0.115 0.434,0.347c0,0.227 -0.112,0.333 -0.338,0.333m-0.004,-1.799c0.227,0 0.335,0.108 0.335,0.331c0,0.218 -0.124,0.33 -0.418,0.33l-2.824,0c-0.294,0 -0.418,-0.112 -0.418,-0.33c0,-0.223 0.108,-0.331 0.335,-0.331l2.991,0Z" style="fill-rule:nonzero;"/>
    <path d="M44.996,189.527l1.472,0" style="fill:none;fill-rule:nonzero;stroke:#000;stroke-width:0.23px;"/>
    <path d="M45.732,188.056l0,1.47" style="fill:none;fill-rule:nonzero;stroke:#000;stroke-width:0.23px;"/>
    <path d="M44.996,188.527l0.735,-0.472l0.735,0.472" style="fill:none;fill-rule:nonzero;stroke:#000;stroke-width:0.23px;"/>
    <path d="M73.085,188.056l0.735,0.742l-0.735,0.731" style="fill:none;fill-rule:nonzero;stroke:#000;stroke-width:0.23px;"/>
    <path d="M79.411,156.166l0.735,0.742l-0.735,0.731" style="fill:none;fill-rule:nonzero;stroke:#000;stroke-width:0.23px;"/>
    <path d="M23.942,156.166l-0.735,0.742l0.735,0.731" style="fill:none;fill-rule:nonzero;stroke:#000;stroke-width:0.23px;"/>
    <path d="M51.873,100.823l0.74,-0.735l0.731,0.735" style="fill:none;fill-rule:nonzero;stroke:#000;stroke-width:0.23px;"/>
    <path d="M51.841,156.282l0.742,0.735l0.731,-0.735" style="fill:none;fill-rule:nonzero;stroke:#000;stroke-width:0.23px;"/>
    <path d="M107.406,124.281l0,1.472" style="fill:none;fill-rule:nonzero;stroke:#000;stroke-width:0.23px;"/>
    <path d="M106.671,124.592l1.472,0.849" style="fill:none;fill-rule:nonzero;stroke:#000;stroke-width:0.23px;"/>
    <path d="M106.671,125.442l1.472,-0.849" style="fill:none;fill-rule:nonzero;stroke:#000;stroke-width:0.23px;"/>
    <rect x="79.686" y="124.271" width="0.735" height="0.734" style="fill:none;stroke:#000;stroke-width:0.23px;"/>
    <rect x="78.95" y="125.006" width="0.735" height="0.734" style="fill:none;stroke:#000;stroke-width:0.23px;"/>
    <path d="M84.73,125.595c0.374,0 0.566,-0.192 0.566,-0.566c0,-0.374 -0.192,-0.566 -0.566,-0.566l-0.53,0c-0.374,0 -0.568,0.192 -0.568,0.566c0,0.374 0.194,0.566 0.568,0.566l0.53,0Zm-0.527,-0.042c-0.346,0 -0.52,-0.178 -0.52,-0.525c0,-0.348 0.174,-0.526 0.52,-0.526l0.523,0c0.346,0 0.521,0.178 0.521,0.526c0,0.347 -0.175,0.525 -0.521,0.525l-0.523,0Z" style="fill-rule:nonzero;stroke:#000;stroke-width:0.23px;stroke-linecap:butt;"/>
    <path d="M87.075,125.173c0.234,0 0.355,-0.12 0.355,-0.355c0,-0.234 -0.121,-0.355 -0.355,-0.355l-1.18,0c-0.007,0 -0.015,0.005 -0.015,0.013l0,1.106c0,0.009 0.007,0.013 0.015,0.013l0.021,0c0.007,0 0.012,-0.005 0.012,-0.013l0,-0.408l1.147,0Zm-0.004,-0.669c0.208,0 0.309,0.105 0.309,0.314c0,0.207 -0.101,0.314 -0.309,0.314l-1.144,0l0,-0.628l1.144,0Z" style="fill-rule:nonzero;stroke:#000;stroke-width:0.23px;stroke-linecap:butt;"/>
    <path d="M88.693,125.595c0.009,0 0.013,-0.005 0.013,-0.013l0,-1.079l0.756,0c0.009,0 0.013,-0.005 0.013,-0.012l0,-0.016c0,-0.007 -0.005,-0.012 -0.013,-0.012l-1.559,0c-0.009,0 -0.013,0.005 -0.013,0.012l0,0.016c0,0.007 0.005,0.012 0.013,0.012l0.755,0l0,1.079c0,0.009 0.006,0.013 0.015,0.013l0.02,0Z" style="fill-rule:nonzero;stroke:#000;stroke-width:0.23px;stroke-linecap:butt;"/>
    <path d="M78.233,188.96c0.234,0 0.355,-0.12 0.355,-0.355c0,-0.234 -0.121,-0.355 -0.355,-0.355l-1.18,0c-0.009,0 -0.015,0.005 -0.015,0.013l0,1.106c0,0.009 0.006,0.013 0.015,0.013l0.02,0c0.009,0 0.013,-0.005 0.013,-0.013l0,-0.408l1.147,0Zm-0.004,-0.669c0.207,0 0.309,0.105 0.309,0.314c0,0.207 -0.102,0.314 -0.309,0.314l-1.144,0l0,-0.628l1.144,0Z" style="fill-rule:nonzero;stroke:#000;stroke-width:0.23px;stroke-linecap:butt;"/>
    <path d="M80.546,189.382c0.007,0 0.012,-0.005 0.012,-0.013l0,-0.015c0,-0.009 -0.005,-0.013 -0.012,-0.013l-1.362,0l0,-1.079c0,-0.007 -0.005,-0.012 -0.012,-0.012l-0.021,0c-0.009,0 -0.015,0.005 -0.015,0.012l0,1.107c0,0.009 0.006,0.013 0.015,0.013l1.395,0Z" style="fill-rule:nonzero;stroke:#000;stroke-width:0.23px;stroke-linecap:butt;"/>
    <path d="M82.774,189.382c0.007,0 0.011,-0.005 0.011,-0.01c0,-0.004 -0.002,-0.007 -0.006,-0.012l-0.858,-1.101c-0.007,-0.009 -0.011,-0.01 -0.023,-0.01l-0.023,0c-0.013,0 -0.017,0.001 -0.023,0.01l-0.859,1.101c-0.004,0.005 -0.005,0.009 -0.005,0.012c0,0.005 0.004,0.01 0.01,0.01l0.018,0c0.013,0 0.018,-0.001 0.025,-0.01l0.224,-0.289l1.238,0l0.226,0.289c0.007,0.009 0.012,0.01 0.026,0.01l0.021,0Zm-0.305,-0.341l-1.169,0l0,-0.004l0.582,-0.748l0.004,0l0.583,0.748l0,0.004Z" style="fill-rule:nonzero;stroke:#000;stroke-width:0.23px;stroke-linecap:butt;"/>
    <path d="M83.697,189.382c0.009,0 0.013,-0.005 0.013,-0.013l0,-0.449l0.809,-0.653c0.001,-0.001 0.002,-0.005 0.002,-0.007c0,-0.005 -0.002,-0.01 -0.01,-0.01l-0.023,0c-0.016,0 -0.021,0.001 -0.033,0.011l-0.767,0.618l-0.766,-0.618c-0.011,-0.01 -0.017,-0.011 -0.033,-0.011l-0.027,0c-0.006,0 -0.01,0.002 -0.01,0.007c0,0.004 0,0.007 0.004,0.01l0.805,0.652l0,0.45c0,0.009 0.007,0.013 0.015,0.013l0.021,0Z" style="fill-rule:nonzero;stroke:#000;stroke-width:0.23px;stroke-linecap:butt;"/>
    <path d="M51.002,189.382c0.245,0 0.371,-0.107 0.371,-0.319c0,-0.183 -0.093,-0.278 -0.276,-0.278l-0.994,0c-0.148,0 -0.221,-0.076 -0.221,-0.224c0,-0.178 0.103,-0.271 0.314,-0.271l1.113,0c0.009,0 0.013,-0.005 0.013,-0.012l0,-0.016c0,-0.007 -0.005,-0.012 -0.013,-0.012l-1.117,0c-0.238,0 -0.36,0.105 -0.36,0.311c0,0.177 0.092,0.266 0.267,0.266l0.995,0c0.153,0 0.228,0.082 0.228,0.237c0,0.184 -0.107,0.277 -0.324,0.277l-1.153,0c-0.009,0 -0.013,0.005 -0.013,0.013l0,0.015c0,0.009 0.005,0.013 0.013,0.013l1.156,0Z" style="fill-rule:nonzero;stroke:#000;stroke-width:0.23px;stroke-linecap:butt;"/>
    <path d="M53.532,189.382c0.007,0 0.012,-0.005 0.012,-0.013l0,-1.107c0,-0.007 -0.005,-0.012 -0.012,-0.012l-0.021,0c-0.009,0 -0.015,0.005 -0.015,0.012l0,0.523l-1.489,0l0,-0.523c0,-0.007 -0.005,-0.012 -0.012,-0.012l-0.021,0c-0.007,0 -0.015,0.005 -0.015,0.012l0,1.107c0,0.009 0.007,0.013 0.015,0.013l0.021,0c0.007,0 0.012,-0.005 0.012,-0.013l0,-0.542l1.489,0l0,0.542c0,0.009 0.006,0.013 0.015,0.013l0.021,0Z" style="fill-rule:nonzero;stroke:#000;stroke-width:0.23px;stroke-linecap:butt;"/>
    <path d="M54.218,189.382c0.009,0 0.013,-0.005 0.013,-0.013l0,-1.107c0,-0.007 -0.005,-0.012 -0.013,-0.012l-0.02,0c-0.009,0 -0.015,0.005 -0.015,0.012l0,1.107c0,0.009 0.006,0.013 0.015,0.013l0.02,0Z" style="fill-rule:nonzero;stroke:#000;stroke-width:0.23px;stroke-linecap:butt;"/>
    <path d="M56.094,188.845c0.009,0 0.013,-0.005 0.013,-0.013l0,-0.015c0,-0.009 -0.005,-0.013 -0.013,-0.013l-1.177,0l0,-0.514l1.392,0c0.009,0 0.013,-0.005 0.013,-0.013l0,-0.015c0,-0.009 -0.005,-0.013 -0.013,-0.013l-1.426,0c-0.009,0 -0.015,0.005 -0.015,0.013l0,1.107c0,0.009 0.006,0.013 0.015,0.013l0.02,0c0.009,0 0.013,-0.005 0.013,-0.013l0,-0.523l1.177,0Z" style="fill-rule:nonzero;stroke:#000;stroke-width:0.23px;stroke-linecap:butt;"/>
    <path d="M57.554,189.382c0.009,0 0.013,-0.005 0.013,-0.013l0,-1.079l0.756,0c0.009,0 0.013,-0.005 0.013,-0.012l0,-0.016c0,-0.007 -0.005,-0.012 -0.013,-0.012l-1.559,0c-0.007,0 -0.012,0.005 -0.012,0.012l0,0.016c0,0.007 0.005,0.012 0.012,0.012l0.755,0l0,1.079c0,0.009 0.006,0.013 0.015,0.013l0.02,0Z" style="fill-rule:nonzero;stroke:#000;stroke-width:0.23px;stroke-linecap:butt;"/>
    <path d="M112.872,125.595c0.009,0 0.013,-0.005 0.013,-0.013l0,-0.015c0,-0.009 -0.005,-0.013 -0.013,-0.013l-1.43,0l0,-0.514l1.215,0c0.007,0 0.013,-0.005 0.013,-0.013l0,-0.015c0,-0.009 -0.006,-0.013 -0.013,-0.013l-1.215,0l0,-0.495l1.43,0c0.009,0 0.013,-0.005 0.013,-0.012l0,-0.016c0,-0.007 -0.005,-0.012 -0.013,-0.012l-1.464,0c-0.009,0 -0.016,0.005 -0.016,0.012l0,1.107c0,0.009 0.007,0.013 0.016,0.013l1.464,0Z" style="fill-rule:nonzero;stroke:#000;stroke-width:0.23px;stroke-linecap:butt;"/>
    <path d="M114.497,125.595c0.374,0 0.566,-0.192 0.566,-0.566c0,-0.374 -0.192,-0.566 -0.566,-0.566l-1.014,0c-0.009,0 -0.015,0.005 -0.015,0.012l0,1.107c0,0.009 0.006,0.013 0.015,0.013l1.014,0Zm-0.004,-1.092c0.346,0 0.52,0.178 0.52,0.526c0,0.348 -0.175,0.525 -0.52,0.525l-0.977,0l0,-1.051l0.977,0Z" style="fill-rule:nonzero;stroke:#000;stroke-width:0.23px;stroke-linecap:butt;"/>
    <path d="M115.681,125.595c0.009,0 0.013,-0.005 0.013,-0.013l0,-1.107c0,-0.007 -0.005,-0.012 -0.013,-0.012l-0.02,0c-0.009,0 -0.015,0.005 -0.015,0.012l0,1.107c0,0.009 0.006,0.013 0.015,0.013l0.02,0Z" style="fill-rule:nonzero;stroke:#000;stroke-width:0.23px;stroke-linecap:butt;"/>
    <path d="M117.031,125.595c0.009,0 0.013,-0.005 0.013,-0.013l0,-1.079l0.756,0c0.007,0 0.012,-0.005 0.012,-0.012l0,-0.016c0,-0.007 -0.005,-0.012 -0.012,-0.012l-1.559,0c-0.009,0 -0.013,0.005 -0.013,0.012l0,0.016c0,0.007 0.005,0.012 0.013,0.012l0.754,0l0,1.079c0,0.009 0.007,0.013 0.016,0.013l0.02,0Z" style="fill-rule:nonzero;stroke:#000;stroke-width:0.23px;stroke-linecap:butt;"/>
  </g>
  <path id="button-up" serif:id="button up" d="M65.542,106.196l0,19.372c0,1.434 -1.162,2.596 -2.596,2.596l-20.878,0c-1.433,0 -2.595,-1.162 -2.595,-2.596l0,-19.372c0,-1.434 1.162,-2.596 2.595,-2.596l20.878,0c1.434,0 2.596,1.162 2.596,2.596Z" style="fill:none;fill-rule:nonzero;stroke:#000;stroke-width:0.3px;"/>
  <path id="button-down" serif:id="button down" d="M65.466,131.516l0,19.374c0,1.433 -1.162,2.596 -2.596,2.596l-20.878,0c-1.434,0 -2.596,-1.163 -2.596,-2.596l0,-19.374c0,-1.434 1.162,-2.596 2.596,-2.596l20.878,0c1.434,0 2.596,1.162 2.596,2.596Z" style="fill:none;fill-rule:nonzero;stroke:#000;stroke-width:0.3px;"/>
  <path id="button-left" serif:id="button left" d="M38.632,131.516l0,19.374c0,1.433 -1.162,2.596 -2.596,2.596l-20.878,0c-1.434,0 -2.596,-1.163 -2.596,-2.596l0,-19.374c0,-1.434 1.162,-2.596 2.596,-2.596l20.878,0c1.434,0 2.596,1.162 2.596,2.596Z" style="fill:none;fill-rule:nonzero;stroke:#000;stroke-width:0.3px;"/>
  <path id="button-right" serif:id="button right" d="M92.296,131.516l0,19.374c0,1.433 -1.162,2.596 -2.596,2.596l-20.878,0c-1.434,0 -2.596,-1.163 -2.596,-2.596l0,-19.374c0,-1.434 1.162,-2.596 2.596,-2.596l20.878,0c1.434,0 2.596,1.162 2.596,2.596Z" style="fill:none;fill-rule:nonzero;stroke:#000;stroke-width:0.3px;"/>
  <path id="button-opt" serif:id="button opt" d="M99.178,99.416l0,19.374c0,1.434 -1.162,2.596 -2.596,2.596l-20.878,0c-1.434,0 -2.596,-1.162 -2.596,-2.596l0,-19.374c0,-1.433 1.162,-2.595 2.596,-2.595l20.878,0c1.434,0 2.596,1.162 2.596,2.595Z" style="fill:none;fill-rule:nonzero;stroke:#000;stroke-width:0.3px;"/>
  <path id="button-edit" serif:id="button edit" d="M126.009,99.416l0,19.374c0,1.434 -1.162,2.596 -2.596,2.596l-20.878,0c-1.434,0 -2.596,-1.162 -2.596,-2.596l0,-19.374c0,-1.433 1.162,-2.595 2.596,-2.595l20.878,0c1.434,0 2.596,1.162 2.596,2.595Z" style="fill:none;fill-rule:nonzero;stroke:#000;stroke-width:0.3px;"/>
  <path id="button-shift" serif:id="button shift" d="M65.466,163.551l0,19.374c0,1.433 -1.162,2.595 -2.596,2.595l-20.878,0c-1.434,0 -2.596,-1.162 -2.596,-2.595l0,-19.374c0,-1.434 1.162,-2.596 2.596,-2.596l20.878,0c1.434,0 2.596,1.162 2.596,2.596Z" style="fill:none;fill-rule:nonzero;stroke:#000;stroke-width:0.3px;"/>
  <path id="button-play" serif:id="button play" d="M92.296,163.551l0,19.374c0,1.433 -1.162,2.595 -2.596,2.595l-20.878,0c-1.434,0 -2.596,-1.162 -2.596,-2.595l0,-19.374c0,-1.434 1.162,-2.596 2.596,-2.596l20.878,0c1.434,0 2.596,1.162 2.596,2.596Z" style="fill:none;fill-rule:nonzero;stroke:#000;stroke-width:0.3px;"/>
  <rect id="screen-edges" serif:id="Screen Edges" x="11.996" y="12.103" width="115.2" height="76.8" style="fill:#ebebeb;fill-opacity:0;"/>
</svg>